<svg width="139" height="95" viewBox="0 0 139 95" fill="none" xmlns="http://www.w3.org/2000/svg">
<path fill-rule="evenodd" clip-rule="evenodd" d="M103.804 41.6361C102.418 53.5938 91.0116 62.9763 77.2723 63.4608C77.14 63.4656 77.0078 63.4697 76.8756 63.4724C69.3807 63.6394 62.1369 61.0402 56.9468 56.3072C51.6401 51.4689 48.737 44.7991 48.5517 37.0187C48.5475 36.8367 48.5532 36.6574 48.5666 36.4801C48.515 36.0613 48.5107 35.6336 48.5602 35.2024L48.9082 32.2002C48.9152 32.142 48.923 32.0832 48.9315 32.025C50.2801 22.9984 56.8521 15.1084 66.0817 11.4355C75.6712 7.61955 86.2183 9.11897 95.0186 15.5505C96.4521 16.5983 97.2965 18.2366 97.2986 19.9749C97.3014 22.0026 96.8029 24.0529 95.8573 25.9055C92.064 33.3376 85.4086 38.9849 77.116 41.8065C73.6472 42.987 70.0575 43.6159 66.4713 43.6953C64.7762 43.7329 63.0817 43.646 61.4007 43.4386C62.1978 45.2727 63.3363 46.8734 64.8172 48.2237C67.8793 51.0158 72.2625 52.5152 76.8536 52.3619C83.8414 52.1156 91.5661 47.5728 92.3977 40.3974C92.7513 37.3499 95.5914 35.1539 98.7413 35.4981C101.89 35.8396 104.158 38.5886 103.804 41.6361Z" fill="#0D549B"/>
<path fill-rule="evenodd" clip-rule="evenodd" d="M106.793 53.4388C110.222 47.504 111.839 40.5059 110.983 33.225C108.821 14.8154 91.7275 1.59685 72.8034 3.70047C58.8568 5.25007 47.8175 14.6946 43.8372 26.9231C42.3485 26.2111 40.6824 25.8475 38.859 25.873C37.3064 25.8937 35.6248 26.1918 33.8624 26.7575C30.1814 27.9373 27.6941 29.7905 26.1855 32.5102C24.7358 31.8037 23.1506 31.4684 21.3889 31.4933C19.7753 31.5153 18.0363 31.8334 16.0702 32.4654C13.2872 33.3589 11.0268 34.963 9.61328 36.9735C8.75722 36.4222 7.73307 36.1166 6.64935 36.131C6.11316 36.1379 5.58051 36.2256 5.06631 36.3905C3.72726 36.8203 2.64282 37.7282 2.01159 38.9439C1.38108 40.161 1.27682 41.5491 1.71868 42.8503L9.06007 64.4986C9.7757 66.6049 11.702 67.9455 13.9659 67.9151C14.5333 67.9069 15.1028 67.8116 15.6589 67.6323C17.0157 67.1969 18.1093 66.3207 18.7391 65.1643C19.3817 63.9832 19.4909 62.6088 19.0455 61.2945L14.5482 48.0325C13.4687 44.8512 14.3106 43.1415 17.4526 42.1328C18.0817 41.9307 18.6569 41.8251 19.1611 41.8175C20.2136 41.8037 21.547 42.1542 22.5173 45.014L27.155 58.692C27.8707 60.8046 29.7849 62.1486 32.0304 62.1176C32.602 62.1093 33.1815 62.0134 33.756 61.8299C35.0858 61.4021 36.1695 60.5307 36.8078 59.3751C37.4682 58.1787 37.5866 56.7975 37.1412 55.4907L32.4836 41.7478C32.0375 40.4328 32.0183 39.3441 32.4254 38.5113C32.8801 37.5813 33.9304 36.8465 35.5468 36.329C36.1773 36.1262 36.7525 36.02 37.2575 36.0131C38.31 35.9986 39.6434 36.3491 40.6293 39.2585L44.0989 48.5451C44.8627 50.737 46.1536 53.0228 47.3557 54.6283C54.1574 65.3534 66.9117 71.8878 80.6335 70.363C88.5522 69.4834 95.5305 66.0523 100.818 61.0192C105.744 64.5627 117.494 73.1966 120.311 72.8834C121.792 72.7185 123.201 71.7477 124.087 70.4141C124.874 69.2274 125.247 67.753 124.888 66.3034" fill="#0D549B" fill-opacity="0.593723"/>
<mask id="mask0" mask-type="alpha" maskUnits="userSpaceOnUse" x="45" y="1" width="66" height="65">
<path fill-rule="evenodd" clip-rule="evenodd" d="M45.543 33.4099C45.543 51.0598 60.1162 65.3666 78.0934 65.3666C96.0712 65.3666 110.644 51.0598 110.644 33.4099C110.644 15.7606 96.0712 1.45386 78.0934 1.45386C60.1162 1.45386 45.543 15.7606 45.543 33.4099Z" fill="white"/>
</mask>
<g mask="url(#mask0)">
<path fill-rule="evenodd" clip-rule="evenodd" d="M45.543 33.4099C45.543 51.0598 60.1162 65.3666 78.0934 65.3666C96.0712 65.3666 110.644 51.0598 110.644 33.4099C110.644 15.7606 96.0712 1.45386 78.0934 1.45386C60.1162 1.45386 45.543 15.7606 45.543 33.4099Z" fill="url(#paint0_linear)"/>
</g>
<mask id="mask1" mask-type="alpha" maskUnits="userSpaceOnUse" x="1" y="0" width="126" height="71">
<path fill-rule="evenodd" clip-rule="evenodd" d="M1.875 0.132324H126.891V70.7632H1.875V0.132324Z" fill="white"/>
</mask>
<g mask="url(#mask1)">
<path fill-rule="evenodd" clip-rule="evenodd" d="M105.652 39.4161C104.246 51.6833 92.6735 61.3086 78.7337 61.8056C78.5995 61.8105 78.4654 61.8148 78.3312 61.8176C70.727 61.9889 63.3776 59.3224 58.1118 54.467C52.7276 49.5034 49.7823 42.6611 49.5943 34.6793C49.59 34.4926 49.5957 34.3086 49.6093 34.1268C49.557 33.6971 49.5527 33.2584 49.6029 32.8161L49.9559 29.7361C49.9631 29.6764 49.971 29.6161 49.9796 29.5564C51.3479 20.2962 58.0157 12.2021 67.3799 8.43413C77.1093 4.51942 87.8102 6.05764 96.7389 12.6556C98.1933 13.7305 99.05 15.4112 99.0521 17.1945C99.055 19.2747 98.5491 21.3781 97.5898 23.2785C93.7411 30.9029 86.9887 36.6964 78.5751 39.591C75.0558 40.802 71.4137 41.4472 67.7752 41.5287C66.0554 41.5673 64.3362 41.4781 62.6307 41.2654C63.4393 43.1469 64.5945 44.789 66.097 46.1742C69.2038 49.0386 73.6509 50.5768 78.309 50.4196C85.3987 50.1668 93.236 45.5065 94.0798 38.1454C94.4385 35.0191 97.3201 32.7662 100.516 33.1194C103.711 33.4697 106.011 36.2899 105.652 39.4161ZM108.446 50.9686C111.915 44.9294 113.551 37.8084 112.685 30.3996C110.498 11.6664 93.2051 -1.7844 74.0606 0.356194C59.9515 1.93303 48.7835 11.5436 44.7568 23.9869C43.2508 23.2624 41.5654 22.8924 39.7206 22.9184C38.15 22.9394 36.4488 23.2427 34.6658 23.8184C30.9419 25.019 28.4256 26.9047 26.8995 29.6722C25.4329 28.9533 23.8293 28.6121 22.047 28.6374C20.4146 28.6598 18.6553 28.9835 16.6664 29.6266C13.8509 30.5358 11.5642 32.1681 10.1342 34.2139C9.26815 33.6529 8.23207 33.3419 7.13572 33.3566C6.59328 33.3637 6.05443 33.4528 5.53424 33.6206C4.17958 34.058 3.08251 34.9819 2.44393 36.219C1.80606 37.4574 1.70059 38.8699 2.1476 40.194L9.57453 62.2227C10.2985 64.3661 12.2472 65.7302 14.5375 65.6993C15.1115 65.6908 15.6877 65.594 16.2502 65.4114C17.6228 64.9684 18.7292 64.0768 19.3664 62.9001C20.0164 61.6982 20.1269 60.2997 19.6763 58.9623L15.1266 45.4672C14.0346 42.23 14.8862 40.4903 18.0648 39.4639C18.7012 39.2582 19.2831 39.1508 19.7933 39.143C20.8581 39.129 22.207 39.4857 23.1885 42.3957L27.8803 56.3141C28.6043 58.4638 30.5408 59.8314 32.8125 59.7998C33.3908 59.7914 33.977 59.6938 34.5582 59.5071C35.9035 59.0718 36.9998 58.1851 37.6456 57.0091C38.3136 55.7918 38.4334 54.3862 37.9828 53.0565L33.271 39.0721C32.8196 37.734 32.8003 36.6262 33.2121 35.7788C33.672 34.8324 34.7347 34.0847 36.3699 33.5581C37.0077 33.3517 37.5896 33.2436 38.1005 33.2366C39.1653 33.2219 40.5142 33.5785 41.5115 36.5391L45.0216 45.9889C45.7943 48.2193 47.1002 50.5452 48.3164 52.1789C55.1973 63.0925 68.1003 69.7417 81.9819 68.1902C89.9929 67.2951 97.0524 63.8037 102.401 58.6822C107.385 62.2879 119.272 71.0736 122.121 70.7548C123.62 70.587 125.045 69.5992 125.941 68.2421C126.738 67.0346 127.115 65.5343 126.752 64.0592C126.208 61.8372 115.195 55.0413 108.446 50.9686Z" fill="white"/>
</g>
<path fill-rule="evenodd" clip-rule="evenodd" d="M70.5878 20.3481C73.2074 19.0374 76.495 19.9044 77.8346 22.4676C77.9114 22.6144 77.9781 22.7625 78.0406 22.9134C77.7249 22.9324 77.3977 23.0223 77.0719 23.1964C75.7682 23.8907 75.2215 25.6908 75.9354 27.0423C76.259 27.6552 76.7663 28.0462 77.3216 28.2309C76.8882 28.7687 76.3358 29.2264 75.6692 29.5592C73.0489 30.8706 69.7612 30.0022 68.4224 27.4389C67.0835 24.8757 67.9682 21.6589 70.5878 20.3481ZM77.6854 33.2555C82.7058 31.4505 83.4577 25.4065 81.6145 20.4955C79.7719 15.5846 73.5906 14.846 68.573 16.6525C63.5555 18.4589 62.7985 24.5001 64.6454 29.4124C66.4923 34.3255 72.6657 35.0605 77.6854 33.2555Z" fill="white"/>
<g filter="url(#filter0_i)">
<path fill-rule="evenodd" clip-rule="evenodd" d="M78.7539 61.6957C78.6202 61.7006 78.4866 61.7048 78.3529 61.7076C70.7784 61.8782 63.4575 59.2225 58.2122 54.3866C52.849 49.443 49.9151 42.6283 49.7278 34.6788C49.7235 34.4928 49.7292 34.3096 49.7428 34.1285C49.6906 33.7005 49.6864 33.2635 49.7364 32.823L50.088 29.7555C50.0952 29.696 50.103 29.6359 50.1116 29.5765C51.4746 20.3536 58.1164 12.2922 67.4442 8.5394C77.1358 4.64049 87.7951 6.1725 96.689 12.7439C98.1377 13.8144 98.9911 15.4884 98.9932 17.2644C98.9961 19.3362 98.4922 21.4311 97.5366 23.324C93.7029 30.9176 86.9767 36.6877 78.5959 39.5706C75.0903 40.7768 71.4623 41.4194 67.838 41.5005C66.1248 41.5389 64.4124 41.4501 62.7135 41.2383C63.519 43.1122 64.6697 44.7477 66.1663 46.1273C69.261 48.9802 73.6908 50.5122 78.3308 50.3555C85.3929 50.1038 93.1997 45.4623 94.0403 38.1309C94.3976 35.0172 97.2679 32.7734 100.451 33.1251C103.634 33.474 105.925 36.2828 105.568 39.3965C104.167 51.6142 92.6394 61.2006 78.7539 61.6957Z" fill="black" fill-opacity="0.01"/>
</g>
<path d="M108.816 91.4844L111.004 80.7812H113.455L110.174 95H107.811L105.105 84.6191L102.342 95H99.9688L96.6875 80.7812H99.1387L101.346 91.4648L104.061 80.7812H106.131L108.816 91.4844ZM124.572 88.6523H118.732V93.0273H125.559V95H116.262V80.7812H125.49V82.7734H118.732V86.6992H124.572V88.6523ZM128.57 95V80.7812H133.443C135.051 80.7812 136.275 81.1035 137.115 81.748C137.955 82.3926 138.375 83.3529 138.375 84.6289C138.375 85.2799 138.199 85.8659 137.848 86.3867C137.496 86.9076 136.982 87.3112 136.305 87.5977C137.073 87.806 137.665 88.1999 138.082 88.7793C138.505 89.3522 138.717 90.0423 138.717 90.8496C138.717 92.1842 138.287 93.2096 137.428 93.9258C136.575 94.6419 135.351 95 133.756 95H128.57ZM131.041 88.584V93.0273H133.785C134.56 93.0273 135.165 92.8353 135.602 92.4512C136.038 92.0671 136.256 91.5332 136.256 90.8496C136.256 89.3717 135.501 88.6165 133.99 88.584H131.041ZM131.041 86.7676H133.463C134.231 86.7676 134.83 86.5951 135.26 86.25C135.696 85.8984 135.914 85.4036 135.914 84.7656C135.914 84.0625 135.712 83.5547 135.309 83.2422C134.911 82.9297 134.29 82.7734 133.443 82.7734H131.041V86.7676Z" fill="white"/>
<defs>
<filter id="filter0_i" x="49.7012" y="6.42163" width="55.9035" height="56.2937" filterUnits="userSpaceOnUse" color-interpolation-filters="sRGB">
<feFlood flood-opacity="0" result="BackgroundImageFix"/>
<feBlend mode="normal" in="SourceGraphic" in2="BackgroundImageFix" result="shape"/>
<feColorMatrix in="SourceAlpha" type="matrix" values="0 0 0 0 0 0 0 0 0 0 0 0 0 0 0 0 0 0 127 0" result="hardAlpha"/>
<feOffset dy="1"/>
<feGaussianBlur stdDeviation="2"/>
<feComposite in2="hardAlpha" operator="arithmetic" k2="-1" k3="1"/>
<feColorMatrix type="matrix" values="0 0 0 0 0 0 0 0 0 0.329574 0 0 0 0 0.628746 0 0 0 1 0"/>
<feBlend mode="normal" in2="shape" result="effect1_innerShadow"/>
</filter>
<linearGradient id="paint0_linear" x1="45.543" y1="65.3666" x2="110.644" y2="65.3666" gradientUnits="userSpaceOnUse">
<stop stop-color="#389AFF"/>
<stop offset="1" stop-color="#0E83F6"/>
</linearGradient>
</defs>
</svg>
